<?xml version="1.0" encoding="UTF-8" standalone="no"?>
<svg
   xmlns:dc="http://purl.org/dc/elements/1.1/"
   xmlns:cc="http://creativecommons.org/ns#"
   xmlns:rdf="http://www.w3.org/1999/02/22-rdf-syntax-ns#"
   xmlns:svg="http://www.w3.org/2000/svg"
   xmlns="http://www.w3.org/2000/svg"
   xmlns:sodipodi="http://sodipodi.sourceforge.net/DTD/sodipodi-0.dtd"
   xmlns:inkscape="http://www.inkscape.org/namespaces/inkscape"
   id="svg2985"
   viewBox="0 0 436.25 618.25"
   version="1.1"
   sodipodi:docname="switch--on.svg"
   inkscape:version="0.92.1 r">
  <sodipodi:namedview
     pagecolor="#ffffff"
     bordercolor="#666666"
     borderopacity="1"
     objecttolerance="10"
     gridtolerance="10"
     guidetolerance="10"
     inkscape:pageopacity="0"
     inkscape:pageshadow="2"
     inkscape:window-width="1223"
     inkscape:window-height="794"
     id="namedview20"
     showgrid="false"
     inkscape:zoom="0.54097421"
     inkscape:cx="218.125"
     inkscape:cy="309.125"
     inkscape:window-x="0"
     inkscape:window-y="27"
     inkscape:window-maximized="0"
     inkscape:current-layer="svg2985" />
  <title
     id="title4005">Switched On</title>
  <defs
     id="defs2987">
    <linearGradient
       id="linearGradient3093"
       y2="350.99"
       gradientUnits="userSpaceOnUse"
       x2="229.87"
       gradientTransform="matrix(-1.1691,0,0,-0.85539,485.39,664.08)"
       y1="745.62"
       x1="229.87">
      <stop
         id="stop3704"
         stop-color="#fff"
         offset="0" />
      <stop
         id="stop3706"
         stop-color="#fff"
         stop-opacity="0"
         offset="1" />
    </linearGradient>
  </defs>
  <g
     id="g4523"
     inkscape:export-xdpi="32"
     inkscape:export-ydpi="32">
    <path
       id="rect2818"
       d="M 362.09,593.21 H 75.19 c -8.864,0 -16,-7.136 -16,-16 0,0 -35,-158.74 -35,-267.46 0,-108.72 35,-267.46 35,-267.46 0,-8.864 7.136,-16 16,-16 h 286.9 c 8.864,0 16,7.136 16,16 0,0 35,158.74 35,267.46 0,108.72 -35,267.46 -35,267.46 0,8.864 -7.136,16 -16,16 z"
       inkscape:connector-curvature="0"
       style="stroke-width:10" />
    <path
       id="path2821"
       d="M 362.09,458.93 H 75.19 c -8.864,0 -11.959,-3.678 -16,-12.21 0,0 -27,-55.937 -27,-135.5 0,-79.558 27,-272.73 27,-272.73 0,-6.7644 7.136,-12.21 16,-12.21 h 286.9 c 8.864,0 16,5.4457 16,12.21 0,0 27,193.17 27,272.73 0,79.558 -27,135.5 -27,135.5 0,6.7644 -7.136,12.21 -16,12.21 z"
       inkscape:connector-curvature="0"
       style="fill:#3c3c3c;stroke-width:10" />
    <path
       id="rect2829"
       d="M 364.67,591.22 H 73.81 c -6.5105,0 -11.429,-4.9315 -11.429,-11.429 l 6,-107.14 c 0,-6.2486 5.1866,-11.429 11.429,-11.429 h 278.86 c 6.242,0 11.428,5.18 11.428,11.429 l 6,107.14 c 0,6.4971 -4.918,11.429 -11.428,11.429 z"
       inkscape:connector-curvature="0"
       style="opacity:0.14200003;fill:#ffffff;stroke-width:10" />
    <path
       id="path3697"
       d="m 38.047,295.85 c 136.83,0 262.76,-22.686 362.82,-60.75 -7.6,-87.903 -22.79,-196.59 -22.79,-196.59 0,-6.7644 -7.13,-12.219 -16,-12.219 h -286.9 c -8.87,0 -16,5.4543 -16,12.219 0,0 -23.87,170.79 -26.72,257.31 1.87,0.008 3.72,0.031 5.59,0.031 z"
       style="opacity:0.27907003;fill:url(#linearGradient3093);stroke-width:10"
       inkscape:connector-curvature="0" />
    <rect
       id="svg_15"
       height="126"
       width="21"
       y="77.759003"
       x="207.62"
       style="fill:#ffffff;stroke-width:0" />
    <rect
       id="svg_18"
       height="0"
       width="1"
       y="475.76001"
       x="-105.36"
       style="fill:#4c4c4c;stroke-width:0" />
    <path
       id="path3679-1"
       d="m 374.57,567.97 c -1.624,-37.086 -2.905,-70.912 -4.4399,-108.01 0.40698,-2.602 0.42395,-2.93 1.83,-4.286 7.4769,-8.621 13.98,-26.167 17.469,-41.469 0.005,-0.022 0.026,-0.041 0.031,-0.063 0.006,-0.019 -0.006,-0.043 0,-0.062 17.867,-55.232 18.446,-113.96 12.875,-170.97 -9.8e-4,-0.01 9.7e-4,-0.021 0,-0.031 -3.621,-43.919 -8.613,-87.694 -14,-131.41 11.768,66.002 20.803,132.5 21.125,199.47 -9.8e-4,0.068 -9.8e-4,0.078 0,0.031 -1.939,87.508 -16.455,171.01 -33.801,256.76 -0.15197,0.867 -1.0289,0.763 -1.089,0.03 z"
       inkscape:connector-curvature="0"
       style="fill:#cccccf;stroke-width:10" />
    <path
       id="path2825"
       style="color:#000000;fill:none;stroke:#ffffff;stroke-width:18.67960358"
       d="m 299.25738,353.89731 a 81.271269,76.229746 0 1 1 -162.54058,0 81.271269,76.229746 0 1 1 162.54058,0 z"
       inkscape:connector-curvature="0" />
  </g>
  <metadata
     id="metadata17">
    <rdf:RDF>
      <cc:Work>
        <dc:format>image/svg+xml</dc:format>
        <dc:type
           rdf:resource="http://purl.org/dc/dcmitype/StillImage" />
        <cc:license
           rdf:resource="http://creativecommons.org/publicdomain/zero/1.0/" />
        <dc:publisher>
          <cc:Agent
             rdf:about="http://openclipart.org/">
            <dc:title>Openclipart</dc:title>
          </cc:Agent>
        </dc:publisher>
        <dc:title>Switch On</dc:title>
        <dc:date>2013-07-08T11:16:08</dc:date>
        <dc:description>A click switch (toggle switch) turned to the on position.</dc:description>
        <dc:source>https://openclipart.org/detail/180085/switch-on-by-gr8dan-180085</dc:source>
        <dc:creator>
          <cc:Agent>
            <dc:title>GR8DAN</dc:title>
          </cc:Agent>
        </dc:creator>
        <dc:subject>
          <rdf:Bag>
            <rdf:li>button</rdf:li>
            <rdf:li>click</rdf:li>
            <rdf:li>off</rdf:li>
            <rdf:li>on</rdf:li>
            <rdf:li>one</rdf:li>
            <rdf:li>plastic</rdf:li>
            <rdf:li>power</rdf:li>
            <rdf:li>switch</rdf:li>
            <rdf:li>toggle</rdf:li>
            <rdf:li>zero</rdf:li>
          </rdf:Bag>
        </dc:subject>
      </cc:Work>
      <cc:License
         rdf:about="http://creativecommons.org/licenses/publicdomain/">
        <cc:permits
           rdf:resource="http://creativecommons.org/ns#Reproduction" />
        <cc:permits
           rdf:resource="http://creativecommons.org/ns#Distribution" />
        <cc:permits
           rdf:resource="http://creativecommons.org/ns#DerivativeWorks" />
      </cc:License>
    </rdf:RDF>
  </metadata>
</svg>
