<?xml version="1.0" encoding="UTF-8" standalone="no"?>
<svg
   xmlns:dc="http://purl.org/dc/elements/1.1/"
   xmlns:cc="http://creativecommons.org/ns#"
   xmlns:rdf="http://www.w3.org/1999/02/22-rdf-syntax-ns#"
   xmlns:svg="http://www.w3.org/2000/svg"
   xmlns="http://www.w3.org/2000/svg"
   xmlns:sodipodi="http://sodipodi.sourceforge.net/DTD/sodipodi-0.dtd"
   xmlns:inkscape="http://www.inkscape.org/namespaces/inkscape"
   id="svg2985"
   viewBox="0 0 436.25 618.25"
   version="1.1"
   sodipodi:docname="switch--off.svg"
   inkscape:version="0.92.1 r">
  <sodipodi:namedview
     pagecolor="#ffffff"
     bordercolor="#666666"
     borderopacity="1"
     objecttolerance="10"
     gridtolerance="10"
     guidetolerance="10"
     inkscape:pageopacity="0"
     inkscape:pageshadow="2"
     inkscape:window-width="1359"
     inkscape:window-height="826"
     id="namedview20"
     showgrid="false"
     inkscape:zoom="0.3817226"
     inkscape:cx="244.32203"
     inkscape:cy="282.92797"
     inkscape:window-x="0"
     inkscape:window-y="27"
     inkscape:window-maximized="0"
     inkscape:current-layer="svg2985" />
  <title
     id="title4005">Switched Off</title>
  <defs
     id="defs2987">
    <linearGradient
       id="linearGradient3708-5"
       y2="-247.41"
       gradientUnits="userSpaceOnUse"
       x2="-1223.7"
       gradientTransform="translate(1444.3,503.06)"
       y1="90.156"
       x1="-1223.7">
      <stop
         id="stop3704-1"
         stop-color="#fff"
         offset="0" />
      <stop
         id="stop3706-7"
         stop-color="#fff"
         stop-opacity="0"
         offset="1" />
    </linearGradient>
  </defs>
  <g
     id="g4523"
     inkscape:export-xdpi="32.003727"
     inkscape:export-ydpi="32.003727">
    <rect
       id="svg_18"
       height="0"
       width="1"
       y="475.76001"
       x="-105.36"
       style="fill:#4c4c4c;stroke-width:0" />
    <path
       id="rect2818"
       style="color:#000000"
       d="m 75.189,26.286 h 286.9 c 8.864,0 16,7.136 16,16 0,0 35,158.74 35,267.46 0,108.72 -35,267.46 -35,267.46 0,8.864 -7.136,16 -16,16 h -286.9 c -8.864,0 -16,-7.136 -16,-16 0,0 -35,-158.74 -35,-267.46 0,-108.72 35,-267.46 35,-267.46 0,-8.864 7.136,-16 16,-16 z"
       inkscape:connector-curvature="0" />
    <path
       id="path2821"
       d="m 75.189,160.57 h 286.9 c 8.864,0 11.959,3.678 16,12.21 0,0 27,55.937 27,135.5 0,79.558 -27,272.73 -27,272.73 0,6.7644 -7.136,12.21 -16,12.21 h -286.9 c -8.864,0 -16,-5.4457 -16,-12.21 0,0 -27,-193.17 -27,-272.73 0,-79.558 27,-135.5 27,-135.5 0,-6.7644 7.136,-12.21 16,-12.21 z"
       style="color:#000000;fill:#3c3c3c"
       inkscape:connector-curvature="0" />
    <path
       id="path2825"
       style="color:#000000;fill:none;stroke:#ffffff;stroke-width:19.61700058"
       d="m 299.75738,479.98823 a 81.271269,84.072577 0 1 1 -162.54058,0 81.271269,84.072577 0 1 1 162.54058,0 z"
       inkscape:connector-curvature="0" />
    <rect
       id="rect2827"
       style="color:#000000;fill:#ffffff"
       ry="0"
       height="112.99"
       width="21"
       y="195.58"
       x="208.84" />
    <path
       id="rect2829"
       d="m 72.604,28.277 h 290.86 c 6.5105,0 11.429,4.9315 11.429,11.429 l -6,107.14 c 0,6.2486 -5.1867,11.429 -11.429,11.429 H 78.604 c -6.2419,0 -11.428,-5.18 -11.428,-11.429 l -6,-107.14 c 0,-6.4971 4.918,-11.429 11.428,-11.429 z"
       style="color:#000000;opacity:0.14200003;fill:#ffffff"
       inkscape:connector-curvature="0" />
    <path
       id="path3679"
       d="m 376.29,47.859 c -1.6247,37.086 -2.9052,70.912 -4.4402,108.01 0.40711,2.6022 0.42384,2.9296 1.8294,4.2857 7.4772,8.6209 13.981,26.168 17.469,41.47 0.005,0.022 0.0262,0.0405 0.0312,0.0625 0.006,0.0191 -0.006,0.0434 0,0.0625 17.867,55.232 18.446,113.96 12.875,170.97 -8.5e-4,0.0103 8.5e-4,0.0209 0,0.0312 -3.621,43.919 -8.6134,87.693 -14,131.41 11.768,-66.002 20.803,-132.5 21.125,-199.47 -10e-4,-0.0674 -10e-4,-0.0778 0,-0.0312 -1.9394,-87.508 -16.455,-171.01 -33.8,-256.76 -0.15271,-0.86615 -1.0294,-0.76207 -1.089,-0.0299 z"
       style="color:#000000;fill:#cccccf"
       inkscape:connector-curvature="0" />
    <path
       id="path3697"
       d="m 399.22,323.65 c -136.83,0 -262.76,22.686 -362.81,60.75 7.5919,87.904 22.781,196.59 22.781,196.59 0,6.7644 7.136,12.219 16,12.219 h 286.91 c 8.8641,0 16,-5.4543 16,-12.219 0,0 23.873,-170.79 26.719,-257.31 -1.8664,-0.008 -3.7233,-0.0312 -5.5938,-0.0312 z"
       style="color:#000000;opacity:0.27907003;fill:url(#linearGradient3708-5)"
       inkscape:connector-curvature="0" />
  </g>
  <metadata
     id="metadata17">
    <rdf:RDF>
      <cc:Work>
        <dc:format>image/svg+xml</dc:format>
        <dc:type
           rdf:resource="http://purl.org/dc/dcmitype/StillImage" />
        <cc:license
           rdf:resource="http://creativecommons.org/publicdomain/zero/1.0/" />
        <dc:publisher>
          <cc:Agent
             rdf:about="http://openclipart.org/">
            <dc:title>Openclipart</dc:title>
          </cc:Agent>
        </dc:publisher>
        <dc:title>Switch Off</dc:title>
        <dc:date>2013-07-08T11:15:02</dc:date>
        <dc:description>A click switch (toggle switch) turned to the off position, smaller bezel.</dc:description>
        <dc:source>https://openclipart.org/detail/180084/switch-off-by-gr8dan-180084</dc:source>
        <dc:creator>
          <cc:Agent>
            <dc:title>GR8DAN</dc:title>
          </cc:Agent>
        </dc:creator>
        <dc:subject>
          <rdf:Bag>
            <rdf:li>button</rdf:li>
            <rdf:li>click</rdf:li>
            <rdf:li>off</rdf:li>
            <rdf:li>on</rdf:li>
            <rdf:li>one</rdf:li>
            <rdf:li>plastic</rdf:li>
            <rdf:li>power</rdf:li>
            <rdf:li>switch</rdf:li>
            <rdf:li>toggle</rdf:li>
            <rdf:li>zero</rdf:li>
          </rdf:Bag>
        </dc:subject>
      </cc:Work>
      <cc:License
         rdf:about="http://creativecommons.org/licenses/publicdomain/">
        <cc:permits
           rdf:resource="http://creativecommons.org/ns#Reproduction" />
        <cc:permits
           rdf:resource="http://creativecommons.org/ns#Distribution" />
        <cc:permits
           rdf:resource="http://creativecommons.org/ns#DerivativeWorks" />
      </cc:License>
    </rdf:RDF>
  </metadata>
</svg>
